<svg xmlns="http://www.w3.org/2000/svg" viewBox="0 0 640 360" role="img" aria-labelledby="singleTitle">
  <title id="singleTitle">Single-cell analysis placeholder visual</title>
  <rect width="640" height="360" fill="#f5f7fb"/>
  <rect x="40" y="42" width="560" height="276" rx="10" fill="#ffffff" stroke="#d8deea"/>
  <g opacity=".95">
    <circle cx="147" cy="112" r="10" fill="#1f4d4c"/>
    <circle cx="182" cy="132" r="8" fill="#1f4d4c"/>
    <circle cx="132" cy="158" r="9" fill="#1f4d4c"/>
    <circle cx="210" cy="166" r="11" fill="#1f4d4c"/>
    <circle cx="266" cy="118" r="9" fill="#c06d4d"/>
    <circle cx="294" cy="145" r="11" fill="#c06d4d"/>
    <circle cx="332" cy="112" r="8" fill="#c06d4d"/>
    <circle cx="360" cy="164" r="10" fill="#c06d4d"/>
    <circle cx="438" cy="214" r="11" fill="#d8a15f"/>
    <circle cx="480" cy="238" r="8" fill="#d8a15f"/>
    <circle cx="514" cy="198" r="10" fill="#d8a15f"/>
    <circle cx="402" cy="250" r="9" fill="#d8a15f"/>
    <circle cx="286" cy="248" r="7" fill="#6f8f89"/>
    <circle cx="318" cy="274" r="7" fill="#6f8f89"/>
    <circle cx="250" cy="286" r="8" fill="#6f8f89"/>
  </g>
  <path d="M108 304c62-34 120-41 176-22 70 24 141 17 214-48" fill="none" stroke="#1f4d4c" stroke-width="4" stroke-linecap="round"/>
  <text x="78" y="78" font-family="Manrope, Arial, sans-serif" font-size="18" font-weight="700" fill="#1f1d1a">Sketching rare cell structure</text>
</svg>
